<?xml version="1.0" encoding="UTF-8" standalone="no"?>
<!DOCTYPE svg PUBLIC "-//W3C//DTD SVG 1.1//EN" "http://www.w3.org/Graphics/SVG/1.1/DTD/svg11.dtd">
<svg width="100%" height="100%" viewBox="0 0 160 200" version="1.1" xmlns="http://www.w3.org/2000/svg" xmlns:xlink="http://www.w3.org/1999/xlink" xml:space="preserve" xmlns:serif="http://www.serif.com/" style="fill-rule:evenodd;clip-rule:evenodd;stroke-linejoin:round;stroke-miterlimit:2;">
    <g id="_1" serif:id="1">
    </g>
    <g id="_2" serif:id="2" transform="matrix(2,0,0,2,0,20)">
        <g opacity="0.75">
            <g transform="matrix(0.176777,-0.176777,0.176777,0.176777,3.93934,5)">
                <rect x="0" y="0" width="6" height="6" style="fill:rgb(230,230,230);"/>
            </g>
        </g>
    </g>
    <g id="_3" serif:id="3" transform="matrix(2,0,0,2,0,40)">
        <g opacity="0.75">
            <g transform="matrix(0.471405,-0.471405,0.471405,0.471405,2.17157,5)">
                <rect x="0" y="0" width="6" height="6" style="fill:rgb(230,230,230);"/>
            </g>
        </g>
    </g>
    <g id="_4" serif:id="4" transform="matrix(2,0,0,2,0,60)">
        <g opacity="0.75">
            <g transform="matrix(0.589256,-0.589256,0.589256,0.589256,1.46447,5)">
                <rect x="0" y="0" width="6" height="6" style="fill:rgb(230,230,230);"/>
            </g>
        </g>
    </g>
    <g id="_5" serif:id="5" transform="matrix(2,0,0,2,0,80)">
        <g opacity="0.75">
            <path d="M14.172,5L13.172,6L11.071,6L12.071,5L11.071,4L13.172,4L14.172,5Z" style="fill:rgb(230,230,230);"/>
            <g transform="matrix(0.589256,-0.589256,0.589256,0.589256,1.46447,5)">
                <rect x="0" y="0" width="6" height="6" style="fill:rgb(230,230,230);"/>
            </g>
        </g>
    </g>
    <g id="_6" serif:id="6" transform="matrix(2,0,0,2,0,100)">
        <g opacity="0.75">
            <path d="M19.172,5L18.172,6L11.071,6L12.071,5L11.071,4L18.172,4L19.172,5Z" style="fill:rgb(230,230,230);"/>
            <g transform="matrix(0.589256,-0.589256,0.589256,0.589256,1.46447,5)">
                <rect x="0" y="0" width="6" height="6" style="fill:rgb(230,230,230);"/>
            </g>
        </g>
    </g>
    <g id="_7" serif:id="7" transform="matrix(2,0,0,2,0,120)">
        <g opacity="0.75">
            <path d="M38.172,5L37.172,6L11.071,6L12.071,5L11.071,4L37.172,4L38.172,5Z" style="fill:rgb(230,230,230);"/>
            <g transform="matrix(0.589256,-0.589256,0.589256,0.589256,1.46447,5)">
                <rect x="0" y="0" width="6" height="6" style="fill:rgb(230,230,230);"/>
            </g>
        </g>
    </g>
    <g id="_8" serif:id="8" transform="matrix(2,0,0,2,0,140)">
        <g opacity="0.75">
            <path d="M67.172,5L66.172,6L11.071,6L12.071,5L11.071,4L66.172,4L67.172,5Z" style="fill:rgb(230,230,230);"/>
            <g transform="matrix(0.589256,-0.589256,0.589256,0.589256,1.46447,5)">
                <rect x="0" y="0" width="6" height="6" style="fill:rgb(230,230,230);"/>
            </g>
        </g>
    </g>
    <g id="_9" serif:id="9" transform="matrix(2,0,0,2,0,160)">
        <g opacity="0.75">
            <path d="M74.172,5L73.172,6L11.071,6L12.071,5L11.071,4L73.172,4L74.172,5Z" style="fill:rgb(230,230,230);"/>
            <g transform="matrix(0.589256,-0.589256,0.589256,0.589256,1.46447,5)">
                <rect x="0" y="0" width="6" height="6" style="fill:rgb(230,230,230);"/>
            </g>
        </g>
    </g>
    <g id="_10" serif:id="10" transform="matrix(2,0,0,2,0,180)">
        <g opacity="0.75">
            <path d="M77.172,5L76.172,6L11.071,6L12.071,5L11.071,4L76.172,4L77.172,5Z" style="fill:rgb(230,230,230);"/>
            <g transform="matrix(0.589256,-0.589256,0.589256,0.589256,1.46447,5)">
                <rect x="0" y="0" width="6" height="6" style="fill:rgb(230,230,230);"/>
            </g>
        </g>
    </g>
</svg>
