{
    "asset" : {
        "generator" : "Khronos glTF Blender I/O v1.3.48",
        "version" : "2.0"
    },
    "scene" : 0,
    "scenes" : [
        {
            "name" : "Scene",
            "nodes" : [
                0
            ]
        }
    ],
    "nodes" : [
        {
            "mesh" : 0,
            "name" : "HexTile"
        }
    ],
    "meshes" : [
        {
            "name" : "HexMesh",
            "primitives" : [
                {
                    "attributes" : {
                        "POSITION" : 0,
                        "NORMAL" : 1,
                        "TEXCOORD_0" : 2
                    },
                    "indices" : 3
                }
            ]
        }
    ],
    "accessors" : [
        {
            "bufferView" : 0,
            "componentType" : 5126,
            "count" : 22617,
            "max" : [
                14.767986297607422,
                0.10404515266418457,
                13.019373893737793
            ],
            "min" : [
                -14.767985343933105,
                -0.03188824653625488,
                -13.019377708435059
            ],
            "type" : "VEC3"
        },
        {
            "bufferView" : 1,
            "componentType" : 5126,
            "count" : 22617,
            "type" : "VEC3"
        },
        {
            "bufferView" : 2,
            "componentType" : 5126,
            "count" : 22617,
            "type" : "VEC2"
        },
        {
            "bufferView" : 3,
            "componentType" : 5123,
            "count" : 33624,
            "type" : "SCALAR"
        }
    ],
    "bufferViews" : [
        {
            "buffer" : 0,
            "byteLength" : 271404,
            "byteOffset" : 0
        },
        {
            "buffer" : 0,
            "byteLength" : 271404,
            "byteOffset" : 271404
        },
        {
            "buffer" : 0,
            "byteLength" : 180936,
            "byteOffset" : 542808
        },
        {
            "buffer" : 0,
            "byteLength" : 67248,
            "byteOffset" : 723744
        }
    ],
    "buffers" : [
        {
            "byteLength" : 790992,
            "uri" : "data:application/octet-stream;base64,"
        }
    ]
}
